<svg xmlns="http://www.w3.org/2000/svg" data-name="Component 4 – 3" viewBox="0 0 431 74"><g data-name="Group 55"><path fill="#ff9f43" d="M36.999 50.533a37 37 0 0 1-6.493-.53 11.2 11.2 0 0 1 2.136-19.44 11.179 11.179 0 0 1 10.616 1.032 11.227 11.227 0 0 1 4.056 4.925 11.125 11.125 0 0 1 .88 4.357 11.2 11.2 0 0 1-4.715 9.129 37.039 37.039 0 0 1-6.48.527Z" data-name="Subtraction 5"/><g data-name="Group 38"><g fill="#ffeddc" data-name="Group 24"><path d="M38.058 46.869h-4.969a.827.827 0 0 1-.828-.828V44.16a1.965 1.965 0 0 0-.443-1.185 5.8 5.8 0 0 1-1.213-3.556 5.84 5.84 0 0 1 .118-1.166 5.776 5.776 0 0 1 .871-2.073 5.818 5.818 0 0 1 2.551-2.104 5.76 5.76 0 0 1 1.088-.339 5.83 5.83 0 0 1 1.172-.118h.828a4.956 4.956 0 0 1 3.224 1.19 4.995 4.995 0 0 1 1.089 1.31 4.924 4.924 0 0 1 .585 1.639 2.015 2.015 0 0 0 .388.934l1.086 1.366a1.144 1.144 0 0 1 .184.333A1.133 1.133 0 0 1 42.72 41.9h-.523v1.657a1.656 1.656 0 0 1-1.656 1.656h-1.655v.828a.827.827 0 0 1-.828.828Zm-3.5-5.518-.137.968h1.19v-.154a1.36 1.36 0 0 1 .145-.6 1.666 1.666 0 0 1 .163-.266 1.84 1.84 0 0 1 .208-.233 1.6 1.6 0 0 1 1.049-.466 1.563 1.563 0 0 0 1.557-1.024 1.657 1.657 0 0 0 .4-.073 2.756 2.756 0 0 0 .292.021 1.691 1.691 0 0 0 1.166-2.912v-.01a1.272 1.272 0 0 0-.647-1.023l-.039-.022-.017-.008a.053.053 0 0 0-.021-.01.053.053 0 0 1-.021-.01.058.058 0 0 0-.032-.01.146.146 0 0 1-.027-.009.058.058 0 0 0-.026-.011.145.145 0 0 1-.027-.009.078.078 0 0 1-.029-.011.078.078 0 0 0-.026-.005.149.149 0 0 0-.063-.021.078.078 0 0 1-.026-.005.078.078 0 0 0-.026-.005.132.132 0 0 1-.031-.005.132.132 0 0 0-.028-.006h-.094a1.069 1.069 0 0 0-.918-.513 1.208 1.208 0 0 0-.271.031 1.477 1.477 0 0 0-1.117-.499 1.506 1.506 0 0 0-.616.125 1.074 1.074 0 0 0-.617-.188 1.2 1.2 0 0 0-.741.271.819.819 0 0 0-.144-.04h-.033c-.026 0-.049 0-.079-.006s-.052-.006-.078-.006a1.085 1.085 0 0 0-.971.606 1.409 1.409 0 0 0-.846.377 1.451 1.451 0 0 0-.438.823 1.17 1.17 0 0 0-.689 1.065 1.329 1.329 0 0 0 .1.491 1.161 1.161 0 0 0-.1.5 1.262 1.262 0 0 0 .835 1.18 2.053 2.053 0 0 0 .052.428 1.7 1.7 0 0 0 1.817 1.274Z" data-name="Path 67"/><path d="m34.141 38.282 1.785 1.666a.4.4 0 0 0 .547 0l1.784-1.666a1.477 1.477 0 0 0 .47-1.081v-.057a1.412 1.412 0 0 0-2.41-1l-.119.119-.119-.119a1.412 1.412 0 0 0-2.41 1v.057a1.477 1.477 0 0 0 .472 1.081Z"/></g><path fill="#ff9f43" d="M30.515 33.619a1.379 1.379 0 0 1-1.329-1.145c-.049-.245-1.144-6.031 2.448-8.188a10.511 10.511 0 0 1 10.625-.017c3.619 2.138 2.673 7.923 2.63 8.168a1.365 1.365 0 0 1-1.577 1.159 1.437 1.437 0 0 1-1.1-1.669c.007-.04.612-4.025-1.278-5.143a7.977 7.977 0 0 0-7.957.007c-1.838 1.1-1.135 5.058-1.127 5.1a1.443 1.443 0 0 1-1.058 1.7 1.312 1.312 0 0 1-.277.028Z" data-name="Path 70"/></g></g><g data-name="Group 60"><g fill="#6c6c6c" data-name="Group 56" transform="translate(9.867 9.867)"><path d="M27.133 54.267a27.332 27.332 0 0 1-5.469-.551 26.987 26.987 0 0 1-9.7-4.083 27.212 27.212 0 0 1-9.832-11.938A26.992 26.992 0 0 1 .551 32.6a27.419 27.419 0 0 1-.263-9.435l4.869.81A22.2 22.2 0 1 0 27.133 4.933V0A27.329 27.329 0 0 1 32.6.551a26.984 26.984 0 0 1 9.7 4.083 27.21 27.21 0 0 1 9.831 11.938 27.007 27.007 0 0 1 1.581 5.093 27.4 27.4 0 0 1 0 10.937 26.988 26.988 0 0 1-4.083 9.7 27.214 27.214 0 0 1-11.938 9.831 26.989 26.989 0 0 1-5.091 1.582 27.328 27.328 0 0 1-5.467.552Z" data-name="Subtraction 2"/><circle cx="2.467" cy="2.467" r="2.467" data-name="Ellipse 12" transform="translate(24.469)"/><circle cx="2.467" cy="2.467" r="2.467" data-name="Ellipse 13" transform="translate(.197 21.361)"/></g><g fill="#ff9f43" data-name="Group 57" transform="translate(1.283)"><path d="M35.717 74a37.268 37.268 0 0 1-7.457-.752 36.8 36.8 0 0 1-13.23-5.567A36.967 36.967 0 0 1 .046 46.859l4.76-1.316a32.068 32.068 0 1 0 30.912-40.61V0a37.278 37.278 0 0 1 7.457.752 36.8 36.8 0 0 1 13.23 5.567A37.107 37.107 0 0 1 69.81 22.6a36.8 36.8 0 0 1 2.156 6.945 37.361 37.361 0 0 1 0 14.914 36.8 36.8 0 0 1-5.567 13.23A37.107 37.107 0 0 1 50.12 71.092a36.811 36.811 0 0 1-6.945 2.156 37.267 37.267 0 0 1-7.458.752Z" data-name="Subtraction 3"/><circle cx="2.467" cy="2.467" r="2.467" data-name="Ellipse 11" transform="translate(33.053)"/><circle cx="2.467" cy="2.467" r="2.467" data-name="Ellipse 14" transform="translate(0 43.904)"/></g><g fill="#6c6c6c" data-name="Group 58" opacity=".1" transform="rotate(180 32.066 32.066)"><path d="M27.133 54.267a27.332 27.332 0 0 1-5.469-.551 26.987 26.987 0 0 1-9.7-4.083 27.212 27.212 0 0 1-9.832-11.938A26.992 26.992 0 0 1 .551 32.6a27.419 27.419 0 0 1-.263-9.435l4.869.81A22.2 22.2 0 1 0 27.133 4.933V0A27.329 27.329 0 0 1 32.6.551a26.984 26.984 0 0 1 9.7 4.083 27.21 27.21 0 0 1 9.831 11.938 27.007 27.007 0 0 1 1.581 5.093 27.4 27.4 0 0 1 0 10.937 26.988 26.988 0 0 1-4.083 9.7 27.214 27.214 0 0 1-11.938 9.831 26.989 26.989 0 0 1-5.091 1.582 27.328 27.328 0 0 1-5.467.552Z" data-name="Subtraction 2"/><circle cx="2.467" cy="2.467" r="2.467" data-name="Ellipse 12" transform="translate(24.469)"/><circle cx="2.467" cy="2.467" r="2.467" data-name="Ellipse 13" transform="translate(.197 21.361)"/></g><g fill="#ff9f43" data-name="Group 59" opacity=".1" transform="rotate(180 36.358 37)"><path d="M35.717 74a37.268 37.268 0 0 1-7.457-.752 36.8 36.8 0 0 1-13.23-5.567A36.967 36.967 0 0 1 .046 46.859l4.76-1.316a32.068 32.068 0 1 0 30.912-40.61V0a37.278 37.278 0 0 1 7.457.752 36.8 36.8 0 0 1 13.23 5.567A37.107 37.107 0 0 1 69.81 22.6a36.8 36.8 0 0 1 2.156 6.945 37.361 37.361 0 0 1 0 14.914 36.8 36.8 0 0 1-5.567 13.23A37.107 37.107 0 0 1 50.12 71.092a36.811 36.811 0 0 1-6.945 2.156 37.267 37.267 0 0 1-7.458.752Z" data-name="Subtraction 3"/><circle cx="2.467" cy="2.467" r="2.467" data-name="Ellipse 11" transform="translate(33.053)"/><circle cx="2.467" cy="2.467" r="2.467" data-name="Ellipse 14" transform="translate(0 43.904)"/></g></g><g data-name="Group 65"><text fill="#ff9f43" data-name="Laura Broekaert" font-family="Inter" font-size="43" font-weight="700" transform="translate(262 53)"><tspan x="-168.015" y="0">Laura Broekaert</tspan></text></g></svg>
