<svg xmlns="http://www.w3.org/2000/svg" width="259.264" height="60" viewBox="0 0 259.264 60"><g transform="translate(-140 -20)"><g transform="translate(160.924 38.515)"><path d="M9.076,16.906a30,30,0,0,1-5.265-.43A9.085,9.085,0,0,1,5.543.713a9.064,9.064,0,0,1,8.607.837,9.1,9.1,0,0,1,3.288,3.993,9.02,9.02,0,0,1,.713,3.533,9.081,9.081,0,0,1-3.823,7.4A30.032,30.032,0,0,1,9.076,16.906Z" transform="translate(0 5.552)" fill="#ff9f43"/><g transform="translate(2.583 0)"><g transform="translate(1.308 8.743)"><path d="M6.043,10.743H2.014a.67.67,0,0,1-.671-.671V8.546a1.593,1.593,0,0,0-.359-.961A4.7,4.7,0,0,1,0,4.7a4.735,4.735,0,0,1,.1-.947A4.683,4.683,0,0,1,.8,2.076,4.717,4.717,0,0,1,2.87.37,4.671,4.671,0,0,1,3.752.1,4.727,4.727,0,0,1,4.7,0h.671A4.018,4.018,0,0,1,7.988.965a4.05,4.05,0,0,1,.883,1.065,3.992,3.992,0,0,1,.475,1.329,1.634,1.634,0,0,0,.315.757l.881,1.1a.927.927,0,0,1,.15.27.918.918,0,0,1-.867,1.224H9.4V8.057A1.343,1.343,0,0,1,8.057,9.4H6.715v.671a.67.67,0,0,1-.671.671ZM3.2,6.27h0l-.11.787h.965V6.93a1.1,1.1,0,0,1,.117-.488,1.351,1.351,0,0,1,.133-.215,1.492,1.492,0,0,1,.169-.189,1.3,1.3,0,0,1,.851-.378A1.268,1.268,0,0,0,6.59,4.83a1.344,1.344,0,0,0,.322-.059,2.235,2.235,0,0,0,.237.017A1.371,1.371,0,0,0,8.1,2.426V2.418a1.031,1.031,0,0,0-.525-.83l-.034-.017h0l-.014-.007A.043.043,0,0,0,7.5,1.555a.043.043,0,0,1-.017-.008.047.047,0,0,0-.021-.009.118.118,0,0,1-.022-.008.047.047,0,0,0-.021-.009A.118.118,0,0,1,7.4,1.512a.063.063,0,0,1-.021,0,.063.063,0,0,0-.021,0,.121.121,0,0,0-.051-.017.063.063,0,0,1-.021,0,.063.063,0,0,0-.021,0,.107.107,0,0,1-.025,0,.107.107,0,0,0-.025,0H7.14A.867.867,0,0,0,6.4,1.055a.979.979,0,0,0-.22.025A1.2,1.2,0,0,0,5.27.674a1.221,1.221,0,0,0-.5.1.871.871,0,0,0-.5-.152.971.971,0,0,0-.6.22.664.664,0,0,0-.117-.03l-.018,0H3.526c-.021,0-.043,0-.064,0S3.42.8,3.4.8a.879.879,0,0,0-.787.491,1.142,1.142,0,0,0-.686.306,1.176,1.176,0,0,0-.355.668.948.948,0,0,0-.559.863,1.077,1.077,0,0,0,.085.4.941.941,0,0,0-.085.406,1.023,1.023,0,0,0,.677.957,1.664,1.664,0,0,0,.042.347A1.376,1.376,0,0,0,3.2,6.27Z" transform="translate(0 0)" fill="#ffeddc"/><path d="M.381,44.219,1.828,45.57a.325.325,0,0,0,.444,0l1.447-1.351a1.2,1.2,0,0,0,.381-.877V43.3a1.145,1.145,0,0,0-1.954-.81l-.1.1-.1-.1A1.145,1.145,0,0,0,0,43.3v.046A1.2,1.2,0,0,0,.381,44.219Z" transform="translate(2.486 -40.437)" fill="#ffeddc"/></g><path d="M-4318.581-3428.273a1.118,1.118,0,0,1-1.078-.928c-.04-.2-.927-4.89,1.985-6.64a8.523,8.523,0,0,1,8.615-.014c2.935,1.733,2.167,6.424,2.132,6.623a1.107,1.107,0,0,1-1.279.939,1.165,1.165,0,0,1-.892-1.354c.005-.033.5-3.264-1.037-4.17a6.469,6.469,0,0,0-6.451.006c-1.491.895-.92,4.1-.914,4.133a1.17,1.17,0,0,1-.858,1.379A1.067,1.067,0,0,1-4318.581-3428.273Z" transform="translate(4319.816 3437.016)" fill="#ff9f43"/></g></g><g transform="translate(140 20)"><g transform="translate(8 8)"><path d="M22,44a22.161,22.161,0,0,1-4.434-.447A21.881,21.881,0,0,1,9.7,40.243a22.064,22.064,0,0,1-7.971-9.679,21.886,21.886,0,0,1-1.282-4.13,22.232,22.232,0,0,1-.213-7.65l3.948.657A18,18,0,1,0,22,4V0a22.159,22.159,0,0,1,4.434.447A21.879,21.879,0,0,1,34.3,3.757a22.062,22.062,0,0,1,7.971,9.679,21.9,21.9,0,0,1,1.282,4.13,22.215,22.215,0,0,1,0,8.867,21.882,21.882,0,0,1-3.31,7.867,22.066,22.066,0,0,1-9.679,7.971,21.884,21.884,0,0,1-4.13,1.282A22.158,22.158,0,0,1,22,44Z" transform="translate(0 0)" fill="#6c6c6c"/><circle cx="2" cy="2" r="2" transform="translate(19.84 0)" fill="#6c6c6c"/><circle cx="2" cy="2" r="2" transform="translate(0.16 17.32)" fill="#6c6c6c"/></g><g transform="translate(1.04 0)"><path d="M28.923,60a30.217,30.217,0,0,1-6.046-.61A29.834,29.834,0,0,1,12.15,54.876,29.973,29.973,0,0,1,0,37.994l3.86-1.067A26,26,0,1,0,28.923,4V0a30.225,30.225,0,0,1,6.046.609A29.838,29.838,0,0,1,45.7,5.123a30.086,30.086,0,0,1,10.869,13.2,29.839,29.839,0,0,1,1.748,5.631,30.293,30.293,0,0,1,0,12.092A29.837,29.837,0,0,1,53.8,46.773,30.087,30.087,0,0,1,40.6,57.642a29.847,29.847,0,0,1-5.631,1.748A30.216,30.216,0,0,1,28.923,60Z" transform="translate(0.037)" fill="#ff9f43"/><circle cx="2" cy="2" r="2" transform="translate(26.8)" fill="#ff9f43"/><circle cx="2" cy="2" r="2" transform="translate(0 35.598)" fill="#ff9f43"/></g><g transform="translate(52 52) rotate(180)" opacity="0.1"><path d="M22,44a22.161,22.161,0,0,1-4.434-.447A21.881,21.881,0,0,1,9.7,40.243a22.064,22.064,0,0,1-7.971-9.679,21.886,21.886,0,0,1-1.282-4.13,22.232,22.232,0,0,1-.213-7.65l3.948.657A18,18,0,1,0,22,4V0a22.159,22.159,0,0,1,4.434.447A21.879,21.879,0,0,1,34.3,3.757a22.062,22.062,0,0,1,7.971,9.679,21.9,21.9,0,0,1,1.282,4.13,22.215,22.215,0,0,1,0,8.867,21.882,21.882,0,0,1-3.31,7.867,22.066,22.066,0,0,1-9.679,7.971,21.884,21.884,0,0,1-4.13,1.282A22.158,22.158,0,0,1,22,44Z" transform="translate(0 0)" fill="#6c6c6c"/><circle cx="2" cy="2" r="2" transform="translate(19.84 0)" fill="#6c6c6c"/><circle cx="2" cy="2" r="2" transform="translate(0.16 17.32)" fill="#6c6c6c"/></g><g transform="translate(58.96 60) rotate(180)" opacity="0.1"><path d="M28.923,60a30.217,30.217,0,0,1-6.046-.61A29.834,29.834,0,0,1,12.15,54.876,29.973,29.973,0,0,1,0,37.994l3.86-1.067A26,26,0,1,0,28.923,4V0a30.225,30.225,0,0,1,6.046.609A29.838,29.838,0,0,1,45.7,5.123a30.086,30.086,0,0,1,10.869,13.2,29.839,29.839,0,0,1,1.748,5.631,30.293,30.293,0,0,1,0,12.092A29.837,29.837,0,0,1,53.8,46.773,30.087,30.087,0,0,1,40.6,57.642a29.847,29.847,0,0,1-5.631,1.748A30.216,30.216,0,0,1,28.923,60Z" transform="translate(0.037 0)" fill="#ff9f43"/><circle cx="2" cy="2" r="2" transform="translate(26.8 0)" fill="#ff9f43"/><circle cx="2" cy="2" r="2" transform="translate(0 35.598)" fill="#ff9f43"/></g></g><path d="M-92.25,0l-.009-17.455h3.69V-3.043l7.474.009L-81.085,0Zm17.276.247a5.41,5.41,0,0,1-2.233-.439,3.529,3.529,0,0,1-1.547-1.3,3.863,3.863,0,0,1-.567-2.161,3.816,3.816,0,0,1,.4-1.832A3.243,3.243,0,0,1-77.83-6.682a5.285,5.285,0,0,1,1.572-.682A11.84,11.84,0,0,1-74.4-7.687q1.142-.119,1.841-.226a2.571,2.571,0,0,0,1.014-.32.712.712,0,0,0,.315-.631v-.051a1.575,1.575,0,0,0-.507-1.253,2.114,2.114,0,0,0-1.436-.443,2.558,2.558,0,0,0-1.56.43A2.02,2.02,0,0,0-75.5-9.1l-3.358-.273a4.592,4.592,0,0,1,1.006-2.067,4.878,4.878,0,0,1,1.939-1.347,7.424,7.424,0,0,1,2.757-.473,8.426,8.426,0,0,1,2.092.256,5.517,5.517,0,0,1,1.781.793,3.878,3.878,0,0,1,1.232,1.376A4.18,4.18,0,0,1-67.6-8.83V0h-3.443V-1.815h-.1a3.641,3.641,0,0,1-.844,1.078,3.805,3.805,0,0,1-1.27.724A5.171,5.171,0,0,1-74.974.247Zm1.04-2.506a3.019,3.019,0,0,0,1.415-.32,2.474,2.474,0,0,0,.963-.865,2.242,2.242,0,0,0,.349-1.236V-6.068a1.856,1.856,0,0,1-.464.2q-.294.089-.661.162t-.733.128l-.665.1a4.491,4.491,0,0,0-1.116.3,1.8,1.8,0,0,0-.741.55,1.368,1.368,0,0,0-.264.857,1.3,1.3,0,0,0,.541,1.129A2.305,2.305,0,0,0-73.935-2.259Zm17.548-3.315v-7.517h3.631V0h-3.486V-2.378h-.136a3.874,3.874,0,0,1-1.47,1.849,4.341,4.341,0,0,1-2.5.7,4.412,4.412,0,0,1-2.31-.6,4.074,4.074,0,0,1-1.555-1.7,5.83,5.83,0,0,1-.567-2.634v-8.335h3.631V-5.4a2.648,2.648,0,0,0,.622,1.832,2.117,2.117,0,0,0,1.645.673,2.582,2.582,0,0,0,1.227-.3,2.34,2.34,0,0,0,.925-.9A2.792,2.792,0,0,0-56.386-5.574ZM-49.858,0V-13.091h3.52v2.284h.136A3.4,3.4,0,0,1-45-12.652a3.173,3.173,0,0,1,1.943-.626,5.492,5.492,0,0,1,.588.034,4.141,4.141,0,0,1,.554.094v3.222a4.743,4.743,0,0,0-.707-.136,6.355,6.355,0,0,0-.827-.06,2.909,2.909,0,0,0-1.428.345,2.565,2.565,0,0,0-.989.959,2.731,2.731,0,0,0-.362,1.415V0Zm13.176.247a5.41,5.41,0,0,1-2.233-.439,3.529,3.529,0,0,1-1.547-1.3,3.863,3.863,0,0,1-.567-2.161,3.816,3.816,0,0,1,.4-1.832,3.243,3.243,0,0,1,1.091-1.193,5.285,5.285,0,0,1,1.572-.682,11.84,11.84,0,0,1,1.854-.324q1.142-.119,1.841-.226a2.571,2.571,0,0,0,1.014-.32.712.712,0,0,0,.315-.631v-.051a1.575,1.575,0,0,0-.507-1.253,2.114,2.114,0,0,0-1.436-.443,2.559,2.559,0,0,0-1.56.43A2.02,2.02,0,0,0-37.21-9.1l-3.358-.273a4.592,4.592,0,0,1,1.006-2.067,4.878,4.878,0,0,1,1.939-1.347,7.424,7.424,0,0,1,2.757-.473,8.426,8.426,0,0,1,2.092.256,5.517,5.517,0,0,1,1.781.793,3.878,3.878,0,0,1,1.232,1.376A4.18,4.18,0,0,1-29.31-8.83V0h-3.443V-1.815h-.1A3.641,3.641,0,0,1-33.7-.737a3.805,3.805,0,0,1-1.27.724A5.171,5.171,0,0,1-36.682.247Zm1.04-2.506a3.019,3.019,0,0,0,1.415-.32,2.474,2.474,0,0,0,.963-.865,2.241,2.241,0,0,0,.349-1.236V-6.068a1.856,1.856,0,0,1-.464.2q-.294.089-.661.162t-.733.128l-.665.1a4.491,4.491,0,0,0-1.116.3,1.8,1.8,0,0,0-.741.55,1.368,1.368,0,0,0-.264.857,1.3,1.3,0,0,0,.541,1.129A2.305,2.305,0,0,0-35.642-2.259ZM-20.855,0V-17.455h6.989a7.933,7.933,0,0,1,3.213.571A4.279,4.279,0,0,1-8.719-15.3a4.208,4.208,0,0,1,.648,2.322,3.773,3.773,0,0,1-.409,1.794A3.5,3.5,0,0,1-9.6-9.925a4.61,4.61,0,0,1-1.624.695v.17A3.935,3.935,0,0,1-9.354-8.5,4,4,0,0,1-7.935-7.044a4.323,4.323,0,0,1,.545,2.22,4.539,4.539,0,0,1-.686,2.476A4.668,4.668,0,0,1-10.1-.631,7.709,7.709,0,0,1-13.4,0Zm3.69-3.017h3.009a3.479,3.479,0,0,0,2.25-.592A1.958,1.958,0,0,0-11.2-5.19a2.345,2.345,0,0,0-.349-1.278,2.378,2.378,0,0,0-.993-.869,3.443,3.443,0,0,0-1.53-.315h-3.094Zm0-7.134h2.736a3.239,3.239,0,0,0,1.351-.268,2.246,2.246,0,0,0,.938-.763,2.017,2.017,0,0,0,.345-1.185,1.92,1.92,0,0,0-.669-1.526,2.808,2.808,0,0,0-1.9-.58h-2.8ZM-5.063,0V-13.091h3.52v2.284h.136A3.4,3.4,0,0,1-.2-12.652a3.173,3.173,0,0,1,1.943-.626,5.492,5.492,0,0,1,.588.034,4.141,4.141,0,0,1,.554.094v3.222a4.744,4.744,0,0,0-.707-.136,6.355,6.355,0,0,0-.827-.06A2.909,2.909,0,0,0-.081-9.78a2.565,2.565,0,0,0-.989.959,2.731,2.731,0,0,0-.362,1.415V0ZM10.048.256a6.657,6.657,0,0,1-3.43-.848A5.731,5.731,0,0,1,4.389-2.962a7.607,7.607,0,0,1-.784-3.533,7.646,7.646,0,0,1,.784-3.55,5.731,5.731,0,0,1,2.229-2.369,6.657,6.657,0,0,1,3.43-.848,6.657,6.657,0,0,1,3.43.848,5.731,5.731,0,0,1,2.229,2.369,7.646,7.646,0,0,1,.784,3.55,7.607,7.607,0,0,1-.784,3.533A5.731,5.731,0,0,1,13.479-.592,6.657,6.657,0,0,1,10.048.256Zm.017-2.813a2.245,2.245,0,0,0,1.509-.516,3.171,3.171,0,0,0,.916-1.411A6.186,6.186,0,0,0,12.8-6.52a6.186,6.186,0,0,0-.311-2.037,3.2,3.2,0,0,0-.916-1.415,2.233,2.233,0,0,0-1.509-.52,2.3,2.3,0,0,0-1.53.52,3.15,3.15,0,0,0-.929,1.415A6.186,6.186,0,0,0,7.3-6.52a6.186,6.186,0,0,0,.311,2.037,3.121,3.121,0,0,0,.929,1.411A2.307,2.307,0,0,0,10.065-2.557ZM24.827.256a6.941,6.941,0,0,1-3.473-.822A5.563,5.563,0,0,1,19.116-2.9a7.692,7.692,0,0,1-.784-3.584,7.653,7.653,0,0,1,.784-3.545,5.787,5.787,0,0,1,2.212-2.378,6.419,6.419,0,0,1,3.354-.852,6.928,6.928,0,0,1,2.416.413,5.446,5.446,0,0,1,1.96,1.24,5.649,5.649,0,0,1,1.308,2.075,8.289,8.289,0,0,1,.469,2.919v1H19.781v-2.25h7.636a2.781,2.781,0,0,0-.341-1.389,2.481,2.481,0,0,0-.942-.95,2.748,2.748,0,0,0-1.393-.345,2.8,2.8,0,0,0-1.462.379,2.72,2.72,0,0,0-.993,1.014,2.889,2.889,0,0,0-.366,1.411v2.139a3.641,3.641,0,0,0,.362,1.679A2.593,2.593,0,0,0,23.31-2.838a3.1,3.1,0,0,0,1.577.384,3.433,3.433,0,0,0,1.108-.17,2.3,2.3,0,0,0,.861-.511,2.223,2.223,0,0,0,.545-.835l3.358.222a4.577,4.577,0,0,1-1.044,2.109,5.245,5.245,0,0,1-2.028,1.4A7.623,7.623,0,0,1,24.827.256ZM36.494-3.767,36.5-8.122h.528l4.193-4.969h4.168l-5.634,6.58H38.9ZM33.2,0V-17.455h3.631V0Zm8.182,0L37.534-5.7l2.42-2.565L45.639,0ZM50.9.247a5.41,5.41,0,0,1-2.233-.439,3.529,3.529,0,0,1-1.547-1.3,3.863,3.863,0,0,1-.567-2.161,3.816,3.816,0,0,1,.4-1.832,3.243,3.243,0,0,1,1.091-1.193,5.285,5.285,0,0,1,1.572-.682,11.84,11.84,0,0,1,1.854-.324q1.142-.119,1.841-.226a2.571,2.571,0,0,0,1.014-.32.712.712,0,0,0,.315-.631v-.051a1.575,1.575,0,0,0-.507-1.253,2.114,2.114,0,0,0-1.436-.443,2.559,2.559,0,0,0-1.56.43A2.02,2.02,0,0,0,50.369-9.1l-3.358-.273a4.592,4.592,0,0,1,1.006-2.067,4.878,4.878,0,0,1,1.939-1.347,7.424,7.424,0,0,1,2.757-.473,8.426,8.426,0,0,1,2.092.256,5.517,5.517,0,0,1,1.781.793,3.878,3.878,0,0,1,1.232,1.376A4.18,4.18,0,0,1,58.27-8.83V0H54.827V-1.815h-.1a3.641,3.641,0,0,1-.844,1.078,3.805,3.805,0,0,1-1.27.724A5.171,5.171,0,0,1,50.9.247Zm1.04-2.506a3.019,3.019,0,0,0,1.415-.32,2.474,2.474,0,0,0,.963-.865,2.241,2.241,0,0,0,.349-1.236V-6.068a1.856,1.856,0,0,1-.464.2q-.294.089-.661.162t-.733.128l-.665.1a4.491,4.491,0,0,0-1.116.3,1.8,1.8,0,0,0-.741.55,1.368,1.368,0,0,0-.264.857,1.3,1.3,0,0,0,.541,1.129A2.305,2.305,0,0,0,51.938-2.259ZM67.057.256a6.941,6.941,0,0,1-3.473-.822A5.563,5.563,0,0,1,61.347-2.9a7.692,7.692,0,0,1-.784-3.584,7.653,7.653,0,0,1,.784-3.545,5.787,5.787,0,0,1,2.212-2.378,6.419,6.419,0,0,1,3.354-.852,6.928,6.928,0,0,1,2.416.413,5.446,5.446,0,0,1,1.96,1.24A5.649,5.649,0,0,1,72.6-9.533a8.289,8.289,0,0,1,.469,2.919v1H62.011v-2.25h7.636a2.781,2.781,0,0,0-.341-1.389,2.48,2.48,0,0,0-.942-.95,2.748,2.748,0,0,0-1.393-.345,2.8,2.8,0,0,0-1.462.379,2.72,2.72,0,0,0-.993,1.014,2.889,2.889,0,0,0-.366,1.411v2.139a3.641,3.641,0,0,0,.362,1.679A2.593,2.593,0,0,0,65.54-2.838a3.1,3.1,0,0,0,1.577.384,3.433,3.433,0,0,0,1.108-.17,2.3,2.3,0,0,0,.861-.511,2.223,2.223,0,0,0,.545-.835l3.358.222a4.577,4.577,0,0,1-1.044,2.109,5.245,5.245,0,0,1-2.028,1.4A7.623,7.623,0,0,1,67.057.256ZM75.435,0V-13.091h3.52v2.284h.136a3.4,3.4,0,0,1,1.2-1.845,3.173,3.173,0,0,1,1.943-.626,5.492,5.492,0,0,1,.588.034,4.141,4.141,0,0,1,.554.094v3.222a4.743,4.743,0,0,0-.707-.136,6.355,6.355,0,0,0-.827-.06,2.909,2.909,0,0,0-1.428.345,2.565,2.565,0,0,0-.989.959,2.731,2.731,0,0,0-.362,1.415V0ZM92.864-13.091v2.727H84.98v-2.727ZM86.77-16.227H90.4v12.2a1.628,1.628,0,0,0,.153.78.839.839,0,0,0,.43.388,1.725,1.725,0,0,0,.643.111,2.83,2.83,0,0,0,.511-.047l.392-.072.571,2.7q-.273.085-.767.2a6.41,6.41,0,0,1-1.2.141,5.488,5.488,0,0,1-2.3-.349,3.209,3.209,0,0,1-1.53-1.244,3.8,3.8,0,0,1-.537-2.131Z" transform="translate(306.162 46.243)" fill="#ff9f43"/><path d="M-79.856,0V-13.818H-74.4a5.571,5.571,0,0,1,2.679.6,4.115,4.115,0,0,1,1.69,1.653,4.945,4.945,0,0,1,.584,2.432,4.859,4.859,0,0,1-.594,2.429,4.1,4.1,0,0,1-1.717,1.64,5.8,5.8,0,0,1-2.716.587h-3.475V-6.821h3a2.941,2.941,0,0,0,1.393-.294,1.923,1.923,0,0,0,.823-.816,2.563,2.563,0,0,0,.273-1.2,2.537,2.537,0,0,0-.273-1.2,1.89,1.89,0,0,0-.827-.8,3.037,3.037,0,0,0-1.4-.287h-1.97V0Zm16.8.2a5.5,5.5,0,0,1-2.749-.651A4.4,4.4,0,0,1-67.576-2.3,6.09,6.09,0,0,1-68.2-5.135a6.058,6.058,0,0,1,.621-2.807,4.582,4.582,0,0,1,1.751-1.882A5.082,5.082,0,0,1-63.17-10.5a5.485,5.485,0,0,1,1.913.327,4.311,4.311,0,0,1,1.552.982A4.472,4.472,0,0,1-58.67-7.547,6.562,6.562,0,0,1-58.3-5.236v.789H-67.05V-6.228H-61a2.2,2.2,0,0,0-.27-1.1,1.964,1.964,0,0,0-.746-.752,2.175,2.175,0,0,0-1.1-.273,2.213,2.213,0,0,0-1.157.3,2.154,2.154,0,0,0-.786.8,2.287,2.287,0,0,0-.29,1.117V-4.44A2.882,2.882,0,0,0-65.07-3.11a2.053,2.053,0,0,0,.813.864,2.456,2.456,0,0,0,1.248.3,2.718,2.718,0,0,0,.877-.135,1.82,1.82,0,0,0,.681-.4,1.76,1.76,0,0,0,.432-.661l2.658.175a3.624,3.624,0,0,1-.827,1.67A4.152,4.152,0,0,1-60.792-.192,6.035,6.035,0,0,1-63.056.2Zm6.632-.2V-10.364h2.787v1.808h.108a2.693,2.693,0,0,1,.951-1.461,2.512,2.512,0,0,1,1.538-.5,4.348,4.348,0,0,1,.466.027,3.278,3.278,0,0,1,.439.074v2.55a3.756,3.756,0,0,0-.56-.108,5.031,5.031,0,0,0-.654-.047,2.3,2.3,0,0,0-1.13.273,2.031,2.031,0,0,0-.783.759,2.162,2.162,0,0,0-.287,1.12V0Zm16.389-7.408-2.631.162a1.384,1.384,0,0,0-.29-.611,1.593,1.593,0,0,0-.584-.439,2.053,2.053,0,0,0-.86-.165,2.125,2.125,0,0,0-1.127.28.845.845,0,0,0-.459.746.8.8,0,0,0,.3.627A2.356,2.356,0,0,0-44.67-6.4l1.876.378a4.65,4.65,0,0,1,2.254,1A2.35,2.35,0,0,1-39.8-3.212a2.833,2.833,0,0,1-.6,1.788,3.9,3.9,0,0,1-1.633,1.2A6.2,6.2,0,0,1-44.413.2a5.577,5.577,0,0,1-3.276-.86A3.324,3.324,0,0,1-49.116-3l2.827-.148a1.44,1.44,0,0,0,.621.955,2.237,2.237,0,0,0,1.262.327,2.244,2.244,0,0,0,1.218-.294.891.891,0,0,0,.469-.759.8.8,0,0,0-.331-.644,2.408,2.408,0,0,0-1-.388l-1.795-.358A4.278,4.278,0,0,1-48.1-5.364a2.605,2.605,0,0,1-.739-1.909A2.78,2.78,0,0,1-48.3-8.994a3.447,3.447,0,0,1,1.532-1.113,6.276,6.276,0,0,1,2.318-.391,5.128,5.128,0,0,1,3.094.83A3.209,3.209,0,0,1-40.034-7.408ZM-33.3.2a5.27,5.27,0,0,1-2.716-.671,4.537,4.537,0,0,1-1.764-1.876,6.022,6.022,0,0,1-.621-2.8,6.053,6.053,0,0,1,.621-2.81,4.537,4.537,0,0,1,1.764-1.876A5.27,5.27,0,0,1-33.3-10.5a5.27,5.27,0,0,1,2.716.671A4.537,4.537,0,0,1-28.82-7.952a6.053,6.053,0,0,1,.621,2.81,6.022,6.022,0,0,1-.621,2.8A4.537,4.537,0,0,1-30.585-.469,5.27,5.27,0,0,1-33.3.2Zm.013-2.227a1.777,1.777,0,0,0,1.194-.408,2.511,2.511,0,0,0,.725-1.117,4.9,4.9,0,0,0,.246-1.613,4.9,4.9,0,0,0-.246-1.613,2.535,2.535,0,0,0-.725-1.12,1.768,1.768,0,0,0-1.194-.412,1.817,1.817,0,0,0-1.211.412,2.494,2.494,0,0,0-.735,1.12,4.9,4.9,0,0,0-.246,1.613,4.9,4.9,0,0,0,.246,1.613A2.471,2.471,0,0,0-34.5-2.432,1.827,1.827,0,0,0-33.287-2.024Zm9.837-3.967V0h-2.874V-10.364h2.739v1.828h.121a2.909,2.909,0,0,1,1.154-1.434,3.508,3.508,0,0,1,1.963-.53,3.645,3.645,0,0,1,1.882.472A3.215,3.215,0,0,1-17.215-8.68,4.533,4.533,0,0,1-16.77-6.6V0h-2.874V-6.086a2.094,2.094,0,0,0-.486-1.488,1.75,1.75,0,0,0-1.356-.536,2.043,2.043,0,0,0-1.022.25,1.717,1.717,0,0,0-.688.725A2.517,2.517,0,0,0-23.45-5.991ZM-11.555.2a4.283,4.283,0,0,1-1.768-.347,2.794,2.794,0,0,1-1.225-1.032A3.058,3.058,0,0,1-15-2.895a3.021,3.021,0,0,1,.317-1.451,2.568,2.568,0,0,1,.864-.945,4.184,4.184,0,0,1,1.245-.54A9.373,9.373,0,0,1-11.1-6.086q.9-.094,1.457-.179a2.035,2.035,0,0,0,.8-.253.563.563,0,0,0,.25-.5v-.04a1.247,1.247,0,0,0-.4-.992A1.674,1.674,0,0,0-10.131-8.4a2.025,2.025,0,0,0-1.235.341,1.6,1.6,0,0,0-.607.854l-2.658-.216a3.636,3.636,0,0,1,.8-1.636A3.862,3.862,0,0,1-12.3-10.124a5.877,5.877,0,0,1,2.183-.374,6.671,6.671,0,0,1,1.656.2,4.368,4.368,0,0,1,1.41.627,3.07,3.07,0,0,1,.975,1.09A3.309,3.309,0,0,1-5.718-6.99V0H-8.444V-1.437h-.081a2.882,2.882,0,0,1-.668.854A3.013,3.013,0,0,1-10.2-.01,4.093,4.093,0,0,1-11.555.2Zm.823-1.984a2.39,2.39,0,0,0,1.12-.253,1.959,1.959,0,0,0,.762-.685A1.774,1.774,0,0,0-8.572-3.7V-4.8a1.47,1.47,0,0,1-.368.159q-.233.071-.523.128t-.58.1l-.526.078a3.556,3.556,0,0,0-.884.236,1.427,1.427,0,0,0-.587.435,1.083,1.083,0,0,0-.209.678,1.031,1.031,0,0,0,.428.894A1.825,1.825,0,0,0-10.731-1.788ZM-.611-13.818V0H-3.478l-.007-13.818Zm6.228,2.4v-2.4H16.966v2.409l-4.23-.007V0H9.854L9.847-11.409ZM17.708,0V-10.364h2.787v1.808H20.6a2.693,2.693,0,0,1,.951-1.461,2.512,2.512,0,0,1,1.538-.5,4.348,4.348,0,0,1,.466.027,3.278,3.278,0,0,1,.439.074v2.55a3.755,3.755,0,0,0-.56-.108,5.031,5.031,0,0,0-.654-.047,2.3,2.3,0,0,0-1.13.273,2.031,2.031,0,0,0-.783.759,2.162,2.162,0,0,0-.287,1.12V0ZM28.139.2a4.283,4.283,0,0,1-1.768-.347,2.794,2.794,0,0,1-1.225-1.032,3.058,3.058,0,0,1-.449-1.71,3.021,3.021,0,0,1,.317-1.451,2.568,2.568,0,0,1,.864-.945,4.184,4.184,0,0,1,1.245-.54,9.373,9.373,0,0,1,1.468-.256q.9-.094,1.457-.179a2.035,2.035,0,0,0,.8-.253.563.563,0,0,0,.25-.5v-.04a1.247,1.247,0,0,0-.4-.992A1.674,1.674,0,0,0,29.563-8.4a2.025,2.025,0,0,0-1.235.341,1.6,1.6,0,0,0-.607.854l-2.658-.216a3.636,3.636,0,0,1,.8-1.636,3.862,3.862,0,0,1,1.535-1.066,5.877,5.877,0,0,1,2.183-.374,6.671,6.671,0,0,1,1.656.2,4.368,4.368,0,0,1,1.41.627,3.07,3.07,0,0,1,.975,1.09,3.309,3.309,0,0,1,.358,1.589V0H31.249V-1.437h-.081a2.882,2.882,0,0,1-.668.854A3.013,3.013,0,0,1,29.5-.01,4.093,4.093,0,0,1,28.139.2Zm.823-1.984a2.39,2.39,0,0,0,1.12-.253,1.959,1.959,0,0,0,.762-.685,1.775,1.775,0,0,0,.277-.978V-4.8a1.47,1.47,0,0,1-.368.159q-.233.071-.523.128t-.58.1l-.526.078a3.556,3.556,0,0,0-.884.236,1.427,1.427,0,0,0-.587.435,1.083,1.083,0,0,0-.209.678,1.031,1.031,0,0,0,.428.894A1.825,1.825,0,0,0,28.962-1.788ZM36.215,0l-.007-10.364h2.874V0Zm1.437-11.706a1.518,1.518,0,0,1-1.1-.422,1.363,1.363,0,0,1-.455-1.029,1.345,1.345,0,0,1,.455-1.019,1.576,1.576,0,0,1,1.1-.432,1.543,1.543,0,0,1,1.1.428,1.356,1.356,0,0,1,.455,1.022,1.363,1.363,0,0,1-.455,1.029A1.518,1.518,0,0,1,37.653-11.706Zm6.6,5.715V0H41.377V-10.364h2.739v1.828h.121a2.909,2.909,0,0,1,1.154-1.434,3.508,3.508,0,0,1,1.963-.53,3.645,3.645,0,0,1,1.882.472A3.215,3.215,0,0,1,50.486-8.68,4.533,4.533,0,0,1,50.931-6.6V0H48.057V-6.086a2.094,2.094,0,0,0-.486-1.488,1.75,1.75,0,0,0-1.356-.536,2.043,2.043,0,0,0-1.022.25,1.717,1.717,0,0,0-.688.725A2.517,2.517,0,0,0,44.251-5.991ZM53.2,0l-.007-10.364h2.874V0Zm1.437-11.706a1.518,1.518,0,0,1-1.1-.422,1.363,1.363,0,0,1-.455-1.029,1.345,1.345,0,0,1,.455-1.019,1.576,1.576,0,0,1,1.1-.432,1.543,1.543,0,0,1,1.1.428,1.356,1.356,0,0,1,.455,1.022,1.363,1.363,0,0,1-.455,1.029A1.518,1.518,0,0,1,54.635-11.706Zm6.6,5.715V0H58.36V-10.364H61.1v1.828h.121a2.909,2.909,0,0,1,1.154-1.434,3.508,3.508,0,0,1,1.963-.53,3.645,3.645,0,0,1,1.882.472A3.215,3.215,0,0,1,67.468-8.68,4.533,4.533,0,0,1,67.914-6.6V0H65.039V-6.086a2.094,2.094,0,0,0-.486-1.488A1.75,1.75,0,0,0,63.2-8.11a2.043,2.043,0,0,0-1.022.25,1.717,1.717,0,0,0-.688.725A2.517,2.517,0,0,0,61.234-5.991ZM74.843,4.1a6.7,6.7,0,0,1-2.392-.381,4,4,0,0,1-1.582-1.036,3.174,3.174,0,0,1-.762-1.471L72.765.857a1.741,1.741,0,0,0,.385.58,1.9,1.9,0,0,0,.7.435,3,3,0,0,0,1.063.165,2.52,2.52,0,0,0,1.548-.455A1.775,1.775,0,0,0,77.069.061v-1.9h-.121a2.731,2.731,0,0,1-.567.816,2.856,2.856,0,0,1-.972.627,3.734,3.734,0,0,1-1.417.243,4.215,4.215,0,0,1-2.122-.543,3.817,3.817,0,0,1-1.518-1.667A6.327,6.327,0,0,1,69.789-5.2a6.71,6.71,0,0,1,.574-2.942,4.112,4.112,0,0,1,1.528-1.768,3.923,3.923,0,0,1,2.095-.587,3.241,3.241,0,0,1,1.457.294,2.885,2.885,0,0,1,.948.729,4.023,4.023,0,0,1,.557.854h.108v-1.741H79.91V.1a3.663,3.663,0,0,1-.648,2.213,3.921,3.921,0,0,1-1.791,1.339A7.159,7.159,0,0,1,74.843,4.1Zm.061-6.41a1.961,1.961,0,0,0,1.177-.347,2.192,2.192,0,0,0,.742-1,4.213,4.213,0,0,0,.26-1.562A4.428,4.428,0,0,0,76.827-6.8a2.309,2.309,0,0,0-.742-1.042A1.888,1.888,0,0,0,74.9-8.211a1.875,1.875,0,0,0-1.194.381,2.332,2.332,0,0,0-.735,1.056,4.478,4.478,0,0,0-.25,1.559,4.272,4.272,0,0,0,.253,1.548,2.194,2.194,0,0,0,.735,1.005A1.957,1.957,0,0,0,74.9-2.308Z" transform="translate(293.162 71.243)" fill="#6c6c6c"/></g></svg>