<?xml version="1.0" standalone="no"?>
<!DOCTYPE svg PUBLIC "-//W3C//DTD SVG 20010904//EN"
 "http://www.w3.org/TR/2001/REC-SVG-20010904/DTD/svg10.dtd">
<svg version="1.0" xmlns="http://www.w3.org/2000/svg"
 width="632.000000pt" height="632.000000pt" viewBox="0 0 632.000000 632.000000"
 preserveAspectRatio="xMidYMid meet">
<metadata>
Created by potrace 1.14, written by Peter Selinger 2001-2017
</metadata>
<g transform="translate(0.000000,632.000000) scale(0.100000,-0.100000)"
fill="#000000" stroke="none">
<path d="M2928 6310 c-345 -40 -653 -135 -933 -291 -352 -194 -549 -512 -632
-1014 -14 -87 -18 -166 -18 -375 0 -262 9 -378 41 -519 l14 -63 -97 -102
c-224 -232 -420 -549 -538 -870 -198 -538 -203 -1155 -13 -1705 156 -454 455
-877 825 -1169 115 -91 90 -83 413 -126 441 -59 823 -80 1315 -73 465 7 763
31 1174 92 l164 25 71 53 c261 198 488 456 661 753 163 278 268 583 322 934
22 143 25 517 5 660 -77 549 -294 1012 -664 1419 l-94 104 12 48 c37 143 52
587 26 789 -55 422 -182 721 -401 941 -101 102 -214 177 -383 259 -223 106
-454 178 -698 215 -123 19 -460 28 -572 15z m464 -665 c206 -27 378 -80 577
-177 97 -48 136 -73 181 -118 92 -92 159 -232 194 -405 30 -151 48 -467 26
-480 -5 -3 -45 12 -89 35 -272 136 -600 224 -936 251 -432 33 -919 -61 -1301
-254 -40 -20 -74 -33 -78 -30 -10 10 -7 312 4 403 27 217 99 389 204 487 134
126 484 259 768 292 117 13 334 12 450 -4z m-12 -1799 c480 -73 849 -424 951
-906 12 -58 32 -127 44 -155 12 -27 90 -135 173 -240 168 -210 188 -249 179
-340 -6 -62 -27 -107 -71 -153 -54 -58 -99 -75 -208 -80 l-96 -4 -4 -237 c-3
-230 -4 -237 -29 -291 -59 -123 -167 -203 -301 -220 -40 -5 -153 -10 -250 -10
l-178 0 0 -115 c0 -76 -5 -127 -14 -148 -16 -39 -61 -82 -99 -96 -39 -15
-1235 -15 -1274 0 -35 13 -80 54 -101 94 -14 25 -18 77 -22 320 -7 349 -2 328
-129 505 -98 137 -174 311 -217 495 -15 64 -19 119 -19 275 0 179 3 204 28
303 136 541 578 937 1122 1006 115 14 410 12 515 -3z"/>
<path d="M2794 3654 c-40 -21 -62 -25 -121 -24 -89 1 -153 -28 -208 -95 -24
-29 -45 -45 -60 -45 -36 0 -141 -58 -176 -97 -34 -39 -79 -127 -79 -155 0 -10
-5 -18 -10 -18 -19 0 -101 -84 -123 -125 -15 -29 -21 -57 -20 -105 1 -81 1
-154 0 -245 -1 -57 4 -79 25 -121 27 -52 77 -103 126 -128 24 -12 30 -24 40
-77 17 -92 54 -160 122 -222 68 -63 140 -95 235 -104 l61 -6 -13 -86 c-21
-145 -34 -131 121 -131 l133 0 5 63 c14 177 171 318 368 333 47 4 109 15 137
26 64 24 151 100 183 162 27 50 38 54 186 60 95 5 153 24 219 74 103 78 155
181 155 306 0 96 -21 161 -75 235 -25 34 -45 71 -45 84 -1 33 -33 98 -70 141
-37 41 -107 81 -162 91 -22 4 -43 17 -56 35 -33 44 -115 80 -185 80 -51 0 -65
4 -97 30 -73 57 -126 75 -225 75 -50 0 -99 -6 -111 -12 -17 -10 -28 -9 -60 7
-58 30 -156 27 -220 -6z m48 -300 c26 -8 67 -34 92 -56 l46 -40 43 36 c95 78
213 101 324 63 70 -24 145 -93 180 -165 24 -49 28 -69 28 -142 0 -76 -3 -92
-33 -152 -29 -60 -57 -89 -263 -283 -127 -118 -242 -218 -255 -221 -13 -3 -34
-2 -48 3 -20 7 -316 274 -448 405 -63 62 -91 130 -96 228 -5 107 19 179 82
244 96 98 215 126 348 80z"/>
</g>
</svg>
